<?xml version="1.0" encoding="UTF-8"?>
<svg version="1.1" xmlns="http://www.w3.org/2000/svg" width="1239" height="1239">
<path d="M0 0 C408.87 0 817.74 0 1239 0 C1239 408.87 1239 817.74 1239 1239 C830.13 1239 421.26 1239 0 1239 C0 830.13 0 421.26 0 0 Z " fill="#0066FE" transform="translate(0,0)"/>
<path d="M0 0 C1.31193374 0.00037972 2.62386748 0.00075944 3.97555679 0.00115067 C5.07175505 -0.00057995 5.07175505 -0.00057995 6.19009873 -0.00234553 C8.66890467 -0.00501789 11.14764728 -0.00048597 13.62645 0.00394398 C15.40490271 0.00350701 17.18335536 0.00263093 18.96180767 0.00134999 C23.88299428 -0.00090553 28.80415937 0.00313743 33.72534324 0.00812577 C39.10086132 0.01247251 44.4763783 0.01103248 49.85189766 0.01030785 C60.30086633 0.00977478 70.74982646 0.0144058 81.19879293 0.02080918 C93.2774576 0.02799064 105.35611708 0.02880291 117.43478435 0.029594 C149.34595922 0.0348509 181.25713217 0.04881191 213.16830486 0.0616985 C284.42767986 0.0823235 355.68705486 0.1029485 429.10580486 0.1241985 C429.10580486 143.0141985 429.10580486 285.9041985 429.10580486 433.1241985 C286.21580486 433.1241985 143.32580486 433.1241985 -3.89419514 433.1241985 C-3.91482014 361.8648235 -3.93544514 290.6054485 -3.95669514 217.1866985 C-3.96579914 194.642365 -3.97490315 172.0980315 -3.98428303 148.87053639 C-3.98879963 121.45317799 -3.98879963 121.45317799 -3.98963886 108.6395641 C-3.99057482 99.64293874 -3.99425736 90.64631954 -3.9997707 81.64969593 C-4.0061114 71.28778574 -4.00903689 60.92588149 -4.00764009 50.56396934 C-4.00703457 45.25718647 -4.00803108 39.95041688 -4.01341027 34.64363641 C-4.01823548 29.85456405 -4.01854561 25.06551451 -4.01509625 20.27644116 C-4.01466862 18.53602287 -4.01596736 16.79560321 -4.01907772 15.05518764 C-4.02304037 12.70141334 -4.02095897 10.34772319 -4.01724297 7.99395043 C-4.01762269 6.68201669 -4.01800241 5.37008294 -4.01839364 4.01839364 C-3.85304792 0.16534571 -3.85304792 0.16534571 0 0 Z " fill="#191919" transform="translate(809.8941951394081,805.8758015036583)"/>
<path d="M0 0 C142.56 0 285.12 0 432 0 C432 143.22 432 286.44 432 434 C289.44 434 146.88 434 0 434 C0 290.78 0 147.56 0 0 Z " fill="#1E1F1F" transform="translate(0,805)"/>
<path d="M0 0 C142.89 0 285.78 0 433 0 C433 142.56 433 285.12 433 432 C290.11 432 147.22 432 0 432 C0 289.44 0 146.88 0 0 Z " fill="#181818" transform="translate(806,0)"/>
<path d="M0 0 C142.56 0 285.12 0 432 0 C432 142.89 432 285.78 432 433 C289.44 433 146.88 433 0 433 C0 290.11 0 147.22 0 0 Z " fill="#151515" transform="translate(0,0)"/>
<path d="M0 0 C0.33 0 0.66 0 1 0 C1 122.43 1 244.86 1 371 C-141.23 371 -283.46 371 -430 371 C-430 309.95 -430 248.9 -430 186 C-288.1 186 -146.2 186 0 186 C0 124.62 0 63.24 0 0 Z " fill="#141414" transform="translate(430,868)"/>
<path d="M0 0 C20.13 0 40.26 0 61 0 C61 20.79 61 41.58 61 63 C-81.56 63.33 -224.12 63.66 -371 64 C-371.33 206.56 -371.66 349.12 -372 496 C-393.12 496 -414.24 496 -436 496 C-436 476.2 -436 456.4 -436 436 C-415.87 436 -395.74 436 -375 436 C-374.67 312.58 -374.34 189.16 -374 62 C-371.24379915 60.62189958 -369.03071659 60.86859953 -365.94424248 60.8613348 C-364.64443723 60.85586036 -363.34463197 60.85038591 -362.00543869 60.84474558 C-360.54926998 60.84366923 -359.0931012 60.84268457 -357.63693237 60.84178162 C-356.10077921 60.83721883 -354.56462728 60.83221923 -353.02847683 60.82681805 C-348.7916128 60.81319528 -344.55475682 60.80580665 -340.31787658 60.79939139 C-335.75480561 60.79140556 -331.1917515 60.77770157 -326.62869263 60.76467896 C-318.71768597 60.74289034 -310.80667762 60.7247546 -302.89565659 60.70907402 C-291.45753567 60.68639707 -280.01943341 60.65825126 -268.58132829 60.62875474 C-250.02541849 60.58105211 -231.46950108 60.53779519 -212.91357422 60.49731445 C-194.88427131 60.4579731 -176.85497518 60.41655015 -158.82568359 60.37231445 C-157.15972823 60.36822804 -157.15972823 60.36822804 -155.46011721 60.36405908 C-149.88858388 60.35037983 -144.31705066 60.33665951 -138.74551749 60.32291877 C-92.49702562 60.20891205 -46.24851894 60.10238502 0 60 C0 40.2 0 20.4 0 0 Z " fill="#0459D6" transform="translate(1178,743)"/>
<path d="M0 0 C0.33 0 0.66 0 1 0 C1 142.89 1 285.78 1 433 C-141.56 433 -284.12 433 -431 433 C-431 432.34 -431 431.68 -431 431 C-430.21958692 430.99826375 -429.43917383 430.9965275 -428.63511187 430.99473864 C-382.43199623 430.89182054 -336.22889519 430.78373196 -290.02580759 430.66888306 C-284.48424617 430.65511267 -278.94268464 430.64138569 -273.40112305 430.62768555 C-272.29784851 430.62495724 -271.19457397 430.62222894 -270.05786686 430.61941796 C-252.16890283 430.57528372 -234.27993243 430.53467055 -216.39095724 430.49534739 C-198.04971137 430.4549521 -179.70847736 430.41079903 -161.36724895 430.36312145 C-150.04007039 430.33379625 -138.71289276 430.30743948 -127.38569879 430.28482103 C-119.62940512 430.26905291 -111.87312598 430.24965105 -104.11684842 430.22733159 C-99.63481048 430.21454326 -95.1527838 430.20341455 -90.6707325 430.19658089 C-86.57444072 430.19030022 -82.47818769 430.17949847 -78.38191711 430.1649667 C-76.89335348 430.16050806 -75.4047836 430.15776664 -73.91621358 430.15683801 C-71.90608634 430.15534302 -69.8959672 430.14721308 -67.88585758 430.1386652 C-66.76530289 430.13600716 -65.64474819 430.13334911 -64.4902373 430.13061053 C-62.05850193 430.28153528 -62.05850193 430.28153528 -61 429 C-60.90623947 427.18944975 -60.8825589 425.37522799 -60.88647461 423.56225586 C-60.88659546 422.38481812 -60.88671631 421.20738037 -60.88684082 419.9942627 C-60.89195679 418.74705444 -60.89707275 417.49984619 -60.90234375 416.21484375 C-60.90335083 415.07567505 -60.90435791 413.93650635 -60.90539551 412.76281738 C-60.91064662 408.48770142 -60.92460773 404.21259975 -60.9375 399.9375 C-60.9684375 385.6134375 -60.9684375 385.6134375 -61 371 C-40.87 371 -20.74 371 0 371 C0 248.57 0 126.14 0 0 Z " fill="#101E31" transform="translate(431,0)"/>
<path d="M0 0 C142.56 0 285.12 0 432 0 C432 143.22 432 286.44 432 434 C431.67 434 431.34 434 431 434 C431 311.24 431 188.48 431 62 C410.87 62 390.74 62 370 62 C370 42.86 370 23.72 370 4 C390.13 4 410.26 4 431 4 C431 3.34 431 2.68 431 2 C288.77 2 146.54 2 0 2 C0 1.34 0 0.68 0 0 Z " fill="#172E4E" transform="translate(0,805)"/>
<path d="M0 0 C1.31193374 0.00037972 2.62386748 0.00075944 3.97555679 0.00115067 C4.70608807 -0.00000318 5.43661934 -0.00115702 6.18928793 -0.00234583 C8.66836413 -0.00501945 11.14737702 -0.00048426 13.62645 0.00394398 C15.40922697 0.00350843 17.19200388 0.00263382 18.97478044 0.00135481 C23.89800907 -0.00089333 28.82121616 0.00313548 33.74444205 0.00813287 C39.04440582 0.01243263 44.34436828 0.01099129 49.6443333 0.0102306 C58.83494968 0.00970506 68.02555899 0.01285497 77.21617359 0.01846844 C90.50442482 0.02657942 103.79267261 0.02919825 117.08092605 0.03045643 C138.63780491 0.03264759 160.19468 0.03930939 181.75155681 0.04875904 C202.69784568 0.05793152 223.64413353 0.06501316 244.590424 0.06926686 C245.88054337 0.06952958 247.17066273 0.0697923 248.49987663 0.07006299 C254.97172477 0.07136798 261.44357292 0.0726317 267.91542107 0.07387489 C321.64555161 0.08424948 375.37567805 0.10186951 429.10580486 0.1241985 C429.10580486 0.7841985 429.10580486 1.4441985 429.10580486 2.1241985 C306.01580486 2.1241985 182.92580486 2.1241985 56.10580486 2.1241985 C56.10580486 21.5941985 56.10580486 41.0641985 56.10580486 61.1241985 C36.96580486 61.1241985 17.82580486 61.1241985 -1.89419514 61.1241985 C-1.83169514 32.1866985 -1.83169514 32.1866985 -1.80410725 23.03850514 C-1.80118834 20.66212213 -1.79863973 18.28573862 -1.79653889 15.90935475 C-1.79142292 14.66214649 -1.78630696 13.41493824 -1.78103596 12.1299358 C-1.78091511 10.95249806 -1.78079426 9.77506031 -1.78066975 8.56194264 C-1.77844914 7.53379948 -1.77622853 6.50565632 -1.77394062 5.44635731 C-1.63234905 3.1628474 -1.63234905 3.1628474 -2.89419514 2.1241985 C-2.89419514 144.3541985 -2.89419514 286.5841985 -2.89419514 433.1241985 C-3.22419514 433.1241985 -3.55419514 433.1241985 -3.89419514 433.1241985 C-3.91705901 378.10697446 -3.93469209 323.08975091 -3.94526047 268.07252306 C-3.94651125 261.58462125 -3.94780557 255.09671944 -3.94912678 248.60881764 C-3.94952025 246.67129273 -3.94952025 246.67129273 -3.94992166 244.69462591 C-3.95427891 223.75022083 -3.96216676 202.80581849 -3.97134794 181.86141504 C-3.98068294 160.38778474 -3.98625042 138.91415587 -3.98828363 117.44052362 C-3.98965918 104.17864056 -3.99401147 90.9167652 -4.00211161 77.65488451 C-4.00737718 68.57403883 -4.00899987 59.49319717 -4.00769652 50.41235007 C-4.00705284 45.16475539 -4.00807397 39.91717425 -4.01340061 34.66958195 C-4.01823336 29.87384305 -4.01853462 25.07812691 -4.01509403 20.28238701 C-4.01466822 18.53944624 -4.015965 16.79650409 -4.01907832 15.05356605 C-4.02304029 12.70033226 -4.0209598 10.34718267 -4.01724297 7.99395043 C-4.01762269 6.68201669 -4.01800241 5.37008294 -4.01839364 4.01839364 C-3.85304792 0.16534571 -3.85304792 0.16534571 0 0 Z " fill="#112239" transform="translate(809.8941951394081,805.8758015036583)"/>
<path d="M0 0 C0.33 0 0.66 0 1 0 C1 122.1 1 244.2 1 370 C20.8 370 40.6 370 61 370 C61 390.13 61 410.26 61 431 C183.76 431 306.52 431 433 431 C433 431.33 433 431.66 433 432 C290.11 432 147.22 432 0 432 C0 289.44 0 146.88 0 0 Z " fill="#19283E" transform="translate(806,0)"/>
<path d="M0 0 C21.12 0 42.24 0 64 0 C64 142.56 64 285.12 64 432 C63.67 432 63.34 432 63 432 C63 309.24 63 186.48 63 60 C43.2 60.33 23.4 60.66 3 61 C3 60.34 3 59.68 3 59 C2.01 59 1.02 59 0 59 C0 39.53 0 20.06 0 0 Z " fill="#0359DA" transform="translate(742,0)"/>
<path d="M0 0 C20.13 0 40.26 0 61 0 C61 20.46 61 40.92 61 62 C-81.89 62 -224.78 62 -372 62 C-372 61.67 -372 61.34 -372 61 C-187.86 60.505 -187.86 60.505 0 60 C0 40.2 0 20.4 0 0 Z " fill="#035EE3" transform="translate(1178,743)"/>
<path d="M0 0 C142.89 0 285.78 0 433 0 C433 20.79 433 41.58 433 63 C413.2 63 393.4 63 373 63 C373 42.54 373 22.08 373 1 C249.91 1 126.82 1 0 1 C0 0.67 0 0.34 0 0 Z " fill="#0359D9" transform="translate(806,432)"/>
<path d="M0 0 C0.33 0 0.66 0 1 0 C1.33 123.09 1.66 246.18 2 373 C21.8 373 41.6 373 62 373 C62 392.8 62 412.6 62 433 C41.54 433 21.08 433 0 433 C0 290.11 0 147.22 0 0 Z " fill="#025CE0" transform="translate(432,806)"/>
<path d="M0 0 C20.46 0 40.92 0 62 0 C62 19.8 62 39.6 62 60 C42.2 60 22.4 60 2 60 C1.67 182.76 1.34 305.52 1 432 C0.67 432 0.34 432 0 432 C0 289.44 0 146.88 0 0 Z " fill="#035DE2" transform="translate(432,0)"/>
<path d="M0 0 C19.47 0 38.94 0 59 0 C59 20.13 59 40.26 59 61 C182.09 61 305.18 61 432 61 C432 61.33 432 61.66 432 62 C289.44 62 146.88 62 0 62 C0 41.54 0 21.08 0 0 Z " fill="#035EE3" transform="translate(0,743)"/>
<path d="M0 0 C19.47 0 38.94 0 59 0 C59 20.46 59 40.92 59 62 C39.53 62 20.06 62 0 62 C0 41.54 0 21.08 0 0 Z " fill="#025CE1" transform="translate(0,433)"/>
<path d="M0 0 C0.33 0 0.66 0 1 0 C1 142.89 1 285.78 1 433 C-141.56 433 -284.12 433 -431 433 C-431 432.34 -431 431.68 -431 431 C-385.04693368 430.87159422 -339.09386487 430.7441124 -293.14079269 430.61781773 C-287.67784615 430.60280293 -282.21489963 430.58778071 -276.75195312 430.57275391 C-275.66467952 430.56976329 -274.57740592 430.56677268 -273.45718463 430.56369144 C-256.00388102 430.51566747 -238.55057912 430.46704725 -221.09727781 430.41819459 C-203.10040265 430.36783418 -185.10352574 430.31814247 -167.10664713 430.26903296 C-156.06063091 430.23887089 -145.01461626 430.20822737 -133.96860327 430.17690456 C-126.32588125 430.15528308 -118.68315755 430.13432862 -111.04043244 430.11383021 C-106.67437578 430.10210251 -102.3083202 430.09014762 -97.94226646 430.07737541 C-65.29465421 429.9829537 -32.64802834 430 0 430 C0 288.1 0 146.2 0 0 Z " fill="#0B3570" transform="translate(431,0)"/>
</svg>
